# xmcd
#
# Track frame offsets: 
#        223
#        12964
#        26906
#        39357
#        47286
#        55308
#        73539
#        82670
#        112915
#        129886
#        147455
#        167863
#        186329
#        205696
#
# Disc length: 3429 seconds
#
# Revision: 0
# Processed by: cddbd v1.5.2PL0 Copyright (c) Steve Scherf et al.
# Submitted via: ExactAudioCopy v0.99pb3
#
DISCID=b30d630e
DTITLE=Tramaine Hawkins - Quintessential EMIGospel
DYEAR=1900
DGENRE=
TTITLE0=Jesus Christ Is The Way
TTITLE1=Dear Jesus I Love You
TTITLE2=He's That King Of Friend
TTITLE3=Coming Home
TTITLE4=Highway
TTITLE5=Holy One
TTITLE6=Holy One (reprise)
TTITLE7=Goin' Up Yonder
TTITLE8=Changed
TTITLE9=I Got Joy
TTITLE10=With The Love Of The Lord
TTITLE11=Born Of A Virgin
TTITLE12=You Are My Life
TTITLE13=Stand Still And Know
EXTD=
EXTT0=
EXTT1=
EXTT2=
EXTT3=
EXTT4=
EXTT5=
EXTT6=
EXTT7=
EXTT8=
EXTT9=
EXTT10=
EXTT11=
EXTT12=
EXTT13=
PLAYORDER=
